<svg width="228" height="67" viewBox="0 0 228 67" fill="none" xmlns="http://www.w3.org/2000/svg">
<path d="M19.5855 22.6993C19.843 22.6993 20.0428 22.6993 20.2915 22.6993C21.1303 26.8876 21.9649 31.0551 22.7994 35.2226C22.8424 35.2309 22.8853 35.2391 22.9282 35.2474C23.7705 31.0862 24.6127 26.925 25.4615 22.732C27.2427 22.732 29.0267 22.732 30.8354 22.732C30.8354 28.7746 30.8354 34.8025 30.8354 40.8571C29.7354 40.8571 28.6538 40.8571 27.5164 40.8571C27.5164 36.1948 27.5164 31.5283 27.5164 26.8618C27.4739 26.8564 27.4314 26.851 27.389 26.8455C26.3609 31.5089 25.3328 36.1723 24.2996 40.8589C23.3558 40.8589 22.413 40.8589 21.4364 40.8589C20.4084 36.1991 19.3808 31.5409 18.3533 26.8828C18.3121 26.8862 18.2708 26.8897 18.2296 26.8931C18.2296 31.5443 18.2296 36.1954 18.2296 40.8648C17.0911 40.8648 16.0268 40.8648 14.9238 40.8648C14.9238 34.8368 14.9238 28.8087 14.9238 22.6993C16.4421 22.6993 17.9849 22.6993 19.5855 22.6993Z" fill="white"/>
<path d="M167.926 61.4364C166.672 57.8456 165.439 54.2979 164.206 50.7503C164.176 50.7553 164.147 50.7603 164.117 50.7653C164.117 54.8944 164.117 59.0236 164.117 63.1847C162.975 63.1847 161.879 63.1847 160.758 63.1847C160.758 57.1475 160.758 51.1349 160.758 45.0326C161.751 45.0326 162.749 45.0326 163.747 45.0326C164.952 45.0326 164.952 45.0328 165.348 46.1565C166.585 49.6685 167.823 53.1805 169.061 56.6923C169.112 56.8365 169.166 56.9795 169.335 57.1048C169.335 53.1036 169.335 49.1025 169.335 45.0672C170.482 45.0672 171.558 45.0672 172.665 45.0672C172.665 51.0981 172.665 57.1269 172.665 63.2167C171.376 63.2167 170.092 63.225 168.809 63.2036C168.685 63.2015 168.504 63.0404 168.451 62.9108C168.259 62.4435 168.111 61.9581 167.926 61.4364Z" fill="white"/>
<path d="M97.0769 52.1111C97.0769 49.7357 97.0769 47.4212 97.0769 45.0698C98.4935 45.0698 99.8759 45.0698 101.315 45.0698C102.722 49.0661 104.14 53.0974 105.559 57.1287C105.603 57.121 105.647 57.1134 105.69 57.1057C105.69 53.1005 105.69 49.0953 105.69 45.0616C106.833 45.0616 107.91 45.0616 109.013 45.0616C109.013 51.1057 109.013 57.1335 109.013 63.2167C107.714 63.2167 106.43 63.2322 105.147 63.1958C104.998 63.1915 104.788 62.9242 104.722 62.7373C103.443 59.0907 102.181 55.4377 100.914 51.7866C100.792 51.4358 100.658 51.0891 100.458 50.7628C100.458 54.8844 100.458 59.0061 100.458 63.1723C99.344 63.1723 98.248 63.1723 97.0769 63.1723C97.0769 59.5156 97.0769 55.8438 97.0769 52.1111Z" fill="white"/>
<path d="M71.2804 50.8907C71.2804 55.0158 71.2804 59.08 71.2804 63.2163C69.9559 63.2163 68.6535 63.2319 67.3527 63.1939C67.2118 63.1898 67.0208 62.8971 66.9525 62.7027C65.6051 58.8657 64.2724 55.0234 62.9367 51.1822C62.8861 51.0367 62.8356 50.8912 62.6997 50.7649C62.6997 54.8945 62.6997 59.0242 62.6997 63.1853C61.5597 63.1853 60.4646 63.1853 59.3441 63.1853C59.3441 57.1481 59.3441 51.1367 59.3441 45.0326C60.2725 45.0326 61.2098 45.0326 62.1471 45.0326C63.5441 45.0326 63.5441 45.0326 64.0177 46.3784C65.2267 49.8137 66.4357 53.2491 67.645 56.6844C67.6962 56.8297 67.7502 56.9738 67.9142 57.1043C67.9142 53.1066 67.9142 49.1089 67.9142 45.0721C69.0605 45.0721 70.1361 45.0721 71.2804 45.0721C71.2804 46.9831 71.2804 48.9064 71.2804 50.8907Z" fill="white"/>
<path d="M184.25 29.5337C184.25 27.2389 184.25 25.0052 184.25 22.7354C185.365 22.7354 186.441 22.7354 187.548 22.7354C187.548 28.7604 187.548 34.7882 187.548 40.8829C186.249 40.8829 184.946 40.8985 183.645 40.8602C183.505 40.8561 183.318 40.5582 183.25 40.3622C181.903 36.525 180.57 32.6827 179.235 28.8414C179.185 28.698 179.134 28.5547 178.993 28.4308C178.993 32.5625 178.993 36.6942 178.993 40.8546C177.868 40.8546 176.786 40.8546 175.662 40.8546C175.662 34.8386 175.662 28.8124 175.662 22.6993C176.679 22.6993 177.718 22.6992 178.756 22.6992C179.85 22.6992 179.847 22.7004 180.201 23.708C181.453 27.2783 182.708 30.8477 183.963 34.4172C184.007 34.5424 184.058 34.6648 184.25 34.7722C184.25 33.0463 184.25 31.3205 184.25 29.5337Z" fill="white"/>
<path d="M149.803 60.5294C149.846 61.0733 149.833 61.5718 149.947 62.0393C150.042 62.4305 150.284 62.7854 150.49 63.2171C149.539 63.2171 148.548 63.2171 147.557 63.2171C146.421 63.2171 146.279 63.1072 146.208 61.9239C146.134 60.6677 146.122 59.4079 146.065 58.1504C146.047 57.747 146.016 57.3353 145.918 56.9462C145.721 56.1663 145.223 55.643 144.407 55.5841C143.631 55.5281 142.847 55.572 142.019 55.572C142.019 58.1284 142.019 60.643 142.019 63.1871C140.79 63.1871 139.608 63.1871 138.385 63.1871C138.385 57.1691 138.385 51.1428 138.385 45.1041C138.401 45.0923 138.432 45.0494 138.463 45.0493C140.902 45.044 143.343 44.9735 145.779 45.0587C148.284 45.1463 149.816 46.8334 149.835 49.3582C149.84 49.9839 149.811 50.6193 149.707 51.2346C149.447 52.7677 148.6 53.8142 147.048 54.2364C147.114 54.2833 147.154 54.3339 147.202 54.343C148.764 54.6393 149.491 55.6581 149.603 57.1897C149.683 58.2823 149.737 59.3768 149.803 60.5294ZM145.857 48.7543C144.875 47.2858 143.39 47.8678 142.04 47.7282C142.04 49.5477 142.04 51.289 142.04 53.1233C142.806 53.0774 143.573 53.0932 144.317 52.9723C145.434 52.7909 146.065 52.1575 146.144 51.0325C146.195 50.3069 145.999 49.5638 145.857 48.7543Z" fill="white"/>
<path d="M68.7582 38.8085C68.7582 33.4242 68.7582 28.1008 68.7582 22.7343C68.9598 22.7214 69.1332 22.7007 69.3066 22.7005C71.4637 22.6983 73.6208 22.6952 75.7778 22.7C78.6002 22.7063 80.2566 24.3731 80.2511 27.2142C80.25 27.7594 80.2224 28.3117 80.1333 28.8482C79.8747 30.4049 79.0354 31.4764 77.437 31.9105C77.5437 31.9655 77.6075 32.0186 77.6787 32.0322C79.1971 32.3222 79.8934 33.3287 80.0074 34.802C80.1092 36.1167 80.1526 37.436 80.2422 38.7518C80.2926 39.4922 80.2614 40.2724 80.94 40.8819C79.6852 40.8819 78.4297 40.9018 77.1765 40.8563C77.0228 40.8507 76.7855 40.5108 76.7521 40.2993C76.6416 39.6002 76.5858 38.8901 76.5487 38.1821C76.5053 37.3511 76.4983 36.5179 76.4848 35.6855C76.4556 33.8972 75.7808 33.2159 74.0288 33.2158C73.5276 33.2158 73.0264 33.2158 72.4533 33.2158C72.4533 35.7787 72.4533 38.3053 72.4533 40.8574C71.1991 40.8574 70.017 40.8574 68.7582 40.8574C68.7582 40.1953 68.7582 39.5324 68.7582 38.8085ZM76.291 29.6089C76.388 28.8363 76.6025 28.056 76.5536 27.2928C76.4865 26.2442 75.865 25.6275 74.8241 25.4918C74.059 25.392 73.2709 25.4722 72.4637 25.4722C72.4637 27.2143 72.4637 28.9657 72.4637 30.7219C73.1377 30.7219 73.7832 30.7689 74.419 30.7096C75.1561 30.6408 75.8304 30.3811 76.291 29.6089Z" fill="white"/>
<path d="M175.84 55.4045C175.796 53.2293 175.773 51.1134 176.309 49.0464C177.072 46.1077 178.793 44.7788 181.809 44.796C182.47 44.7998 183.145 44.8319 183.79 44.9676C186.027 45.4383 187.315 47.1292 187.452 49.6962C187.466 49.9544 187.454 50.214 187.454 50.498C186.297 50.498 185.157 50.498 184.085 50.498C183.906 49.8568 183.802 49.2314 183.556 48.6689C183.261 47.9928 182.754 47.4994 181.941 47.4948C181.097 47.4901 180.455 47.9086 180.209 48.6738C179.896 49.6468 179.652 50.6673 179.564 51.6837C179.368 53.9338 179.383 56.1931 179.843 58.4188C179.951 58.9435 180.156 59.4765 180.437 59.9305C180.995 60.8337 182.015 61.0106 182.913 60.437C183.728 59.9167 184.107 59.134 184.163 58.1942C184.202 57.5465 184.17 56.8945 184.17 56.1929C183.398 56.1929 182.621 56.1929 181.808 56.1929C181.808 55.2764 181.808 54.4096 181.808 53.4979C183.72 53.4979 185.663 53.4979 187.644 53.4979C187.644 56.7047 187.644 59.9259 187.644 63.1821C186.784 63.1821 185.925 63.1821 184.989 63.1821C184.989 62.6893 184.989 62.1803 184.989 61.6713C183.682 63.4696 181.892 63.6349 179.972 63.3834C178.237 63.1561 177.148 62.1267 176.559 60.5042C175.968 58.8753 175.912 57.1693 175.84 55.4045Z" fill="white"/>
<path d="M84.9575 63.217C84.5158 63.217 84.1334 63.217 83.701 63.217C83.701 62.6897 83.701 62.1881 83.701 61.5862C83.5711 61.6925 83.5046 61.7233 83.4737 61.7756C82.0546 64.1798 77.5097 63.8149 76.1752 62.1157C75.4095 61.1406 74.9898 60.0302 74.8336 58.8384C74.4227 55.7045 74.3114 52.5585 74.9231 49.4368C75.2982 47.5222 76.1513 45.8788 78.1106 45.1763C79.8351 44.558 81.605 44.6024 83.3264 45.2197C84.9828 45.8136 85.7303 47.1664 86.036 48.8156C86.1354 49.3515 86.158 49.9019 86.2201 50.4876C85.0335 50.4876 83.8934 50.4876 82.7467 50.4876C82.6428 50.008 82.5774 49.5069 82.4231 49.0355C82.1063 48.0676 81.4531 47.5163 80.6843 47.4944C79.8036 47.4694 79.0557 47.9282 78.7865 48.972C78.4754 50.1779 78.2359 51.4399 78.2278 52.6793C78.2152 54.6006 78.3894 56.5267 78.5634 58.4435C78.6105 58.9626 78.873 59.4991 79.1566 59.9511C79.7041 60.8241 80.7154 61.0028 81.5918 60.46C82.3712 59.9773 82.7764 59.2392 82.8572 58.3517C82.9211 57.6492 82.87 56.9361 82.87 56.1592C82.4669 56.1592 82.0702 56.1592 81.6734 56.1592C81.2943 56.1592 80.9152 56.1592 80.507 56.1592C80.507 55.257 80.507 54.3912 80.507 53.4892C82.4448 53.4892 84.3875 53.4892 86.3592 53.4892C86.3592 56.7081 86.3592 59.9142 86.3592 63.217C85.9224 63.217 85.4696 63.217 84.9575 63.217Z" fill="white"/>
<path d="M41.4225 38.1641C41.2295 37.121 41.2295 37.1203 40.2191 37.1211C39.01 37.1221 37.8008 37.1239 36.5916 37.1274C36.5533 37.1275 36.5151 37.1492 36.4429 37.1711C36.1756 38.3767 35.9046 39.5992 35.6273 40.8504C34.3731 40.8504 33.1312 40.8504 31.8181 40.8504C33.4002 34.8018 34.9799 28.7625 36.5611 22.7175C38.0731 22.7175 39.5607 22.7175 41.0914 22.7175C42.6691 28.7511 44.2451 34.7782 45.8328 40.8499C44.5445 40.8499 43.3083 40.8499 42.0301 40.8499C41.8334 39.9794 41.6341 39.0967 41.4225 38.1641ZM37.7613 30.8197C37.5409 31.8816 37.3206 32.9435 37.0965 34.0237C38.2856 34.0237 39.4072 34.0237 40.567 34.0237C39.9975 31.3493 39.435 28.7079 38.8726 26.0665C38.8402 26.0736 38.8079 26.0807 38.7755 26.0878C38.442 27.631 38.1085 29.1742 37.7613 30.8197Z" fill="white"/>
<path d="M92.5015 22.6992C93.9054 22.6992 95.253 22.6992 96.6343 22.6992C98.2175 28.7539 99.7934 34.7803 101.381 40.8508C100.092 40.8508 98.8553 40.8508 97.5769 40.8508C97.3324 39.7611 97.0717 38.6634 96.8472 37.5582C96.7841 37.2473 96.6947 37.1088 96.3519 37.1132C94.9227 37.1316 93.493 37.121 92.0049 37.121C91.727 38.3661 91.4513 39.6011 91.171 40.8566C89.9063 40.8566 88.6633 40.8566 87.3693 40.8566C87.8231 39.1048 88.27 37.3672 88.7237 35.6314C89.8091 31.4784 90.897 27.3261 91.9868 23.1743C92.0493 22.9363 92.0459 22.6148 92.5015 22.6992ZM93.2225 31.2204C93.0314 32.148 92.8404 33.0756 92.6441 34.0285C93.8213 34.0285 94.9447 34.0285 96.1151 34.0285C95.5469 31.3575 94.9852 28.7166 94.4235 26.0758C94.3869 26.0804 94.3504 26.0851 94.3139 26.0897C93.9613 27.7675 93.6087 29.4452 93.2225 31.2204Z" fill="white"/>
<path d="M116.134 32.5169C113.216 31.0569 112.167 27.7081 113.711 24.8555C114.409 23.5667 115.547 22.8165 116.933 22.6389C118.133 22.485 119.401 22.4488 120.585 22.6633C123.15 23.128 124.444 25.0503 124.231 27.8044C123.098 27.8044 121.961 27.8044 120.818 27.8044C120.723 27.3199 120.672 26.8147 120.522 26.3414C120.232 25.4273 119.455 25.0219 118.401 25.1714C117.427 25.3096 116.858 25.8934 116.779 26.8372C116.658 28.2632 117.038 28.9463 118.327 29.5403C119.678 30.1631 121.083 30.6809 122.386 31.3914C125.219 32.9363 125.749 37.4702 123.399 39.6508C122.392 40.5856 121.137 41.0017 119.815 41.0643C118.659 41.119 117.468 41.0942 116.338 40.8712C114.316 40.4723 113.151 39.0596 112.921 36.9874C112.855 36.3885 112.86 35.7816 112.831 35.1513C114.088 35.1513 115.271 35.1513 116.536 35.1513C116.536 35.545 116.517 35.9257 116.539 36.3041C116.608 37.5131 117.156 38.157 118.278 38.3747C119.365 38.5854 120.408 38.1403 120.81 37.2944C121.276 36.3135 121.063 34.9324 120.225 34.3537C119.573 33.9033 118.81 33.6102 118.079 33.2859C117.456 33.0094 116.808 32.788 116.134 32.5169Z" fill="white"/>
<path d="M138.978 40.9464C137.746 40.9909 136.546 41.1578 135.382 41.0193C132.59 40.6869 131.217 39.0604 131.125 36.204C131.114 35.8628 131.123 35.5209 131.123 35.1534C132.36 35.1534 133.542 35.1534 134.809 35.1534C134.809 35.5405 134.791 35.9207 134.812 36.2987C134.88 37.5093 135.426 38.1542 136.547 38.3731C137.633 38.5854 138.677 38.1433 139.081 37.3001C139.55 36.3239 139.346 34.9273 138.503 34.3602C137.78 33.8733 136.937 33.5615 136.134 33.2013C135.531 32.9306 134.896 32.732 134.295 32.4562C132.149 31.4715 131.245 29.7379 131.367 27.4114C131.532 24.2684 133.406 22.4636 136.542 22.465C137.342 22.4653 138.161 22.4993 138.939 22.6688C141.452 23.2164 142.774 25.1593 142.492 27.8117C141.358 27.8117 140.219 27.8117 139.092 27.8117C138.993 27.3058 138.943 26.7981 138.79 26.3236C138.505 25.4335 137.758 25.0412 136.717 25.1661C135.743 25.2829 135.147 25.8668 135.055 26.7944C134.913 28.2315 135.309 28.9452 136.617 29.547C137.968 30.1687 139.372 30.6884 140.675 31.3998C143.478 32.9317 144.013 37.4278 141.706 39.62C140.951 40.3368 140.025 40.7129 138.978 40.9464Z" fill="white"/>
<path d="M126.235 63.2174C125.937 63.2174 125.699 63.2174 125.428 63.2174C125.428 57.1507 125.428 51.1244 125.428 45.0651C128.756 45.0651 132.074 45.0651 135.438 45.0651C135.438 46.0544 135.438 47.055 135.438 48.1014C133.337 48.1014 131.247 48.1014 129.113 48.1014C129.113 49.5327 129.113 50.9195 129.113 52.3418C131.086 52.3418 133.058 52.3418 135.074 52.3418C135.074 53.3763 135.074 54.3766 135.074 55.423C133.096 55.423 131.127 55.423 129.114 55.423C129.114 57.0173 129.114 58.5668 129.114 60.1519C131.287 60.1519 133.46 60.1519 135.679 60.1519C135.679 61.1672 135.679 62.1491 135.679 63.2174C132.561 63.2174 129.427 63.2174 126.235 63.2174Z" fill="white"/>
<path d="M114.726 45.0322C117.306 45.0322 119.825 45.0322 122.378 45.0322C122.378 46.0464 122.378 47.0337 122.378 48.0895C120.274 48.0895 118.171 48.0895 116.034 48.0895C116.034 49.532 116.034 50.9073 116.034 52.3322C118.004 52.3322 119.991 52.3322 122.014 52.3322C122.014 53.3679 122.014 54.3548 122.014 55.4107C120.033 55.4107 118.052 55.4107 116.035 55.4107C116.035 57.016 116.035 58.5536 116.035 60.1416C118.204 60.1416 120.393 60.1416 122.618 60.1416C122.618 61.1768 122.618 62.1625 122.618 63.183C119.201 63.183 115.788 63.183 112.35 63.183C112.35 57.1494 112.35 51.1383 112.35 45.0322C113.114 45.0322 113.89 45.0322 114.726 45.0322Z" fill="white"/>
<path d="M64.6242 22.6988C65.4699 22.6988 66.2552 22.6988 67.0737 22.6988C67.0737 23.7142 67.0737 24.702 67.0737 25.7579C64.9667 25.7579 62.8637 25.7579 60.7274 25.7579C60.7274 27.2004 60.7274 28.576 60.7274 30.0004C62.6989 30.0004 64.6874 30.0004 66.7098 30.0004C66.7098 31.0357 66.7098 32.0231 66.7098 33.0791C64.7259 33.0791 62.7439 33.0791 60.7281 33.0791C60.7281 34.6844 60.7281 36.2223 60.7281 37.8098C62.8997 37.8098 65.0893 37.8098 67.3138 37.8098C67.3138 38.8446 67.3138 39.8309 67.3138 40.8508C63.8938 40.8508 60.481 40.8508 57.0436 40.8508C57.0436 34.8142 57.0436 28.8031 57.0436 22.6988C59.5456 22.6988 62.0546 22.6988 64.6242 22.6988Z" fill="white"/>
<path d="M46.3693 57.969C46.3693 53.6418 46.3693 49.3757 46.3693 45.0709C49.7352 45.0709 53.0686 45.0709 56.4298 45.0709C56.4298 46.0656 56.4298 47.0538 56.4298 48.1061C54.3042 48.1061 52.1985 48.1061 50.0688 48.1061C50.0688 49.5462 50.0688 50.9224 50.0688 52.3486C52.0625 52.3486 54.0507 52.3486 56.0663 52.3486C56.0663 53.3864 56.0663 54.3746 56.0663 55.4273C54.0632 55.4273 52.0787 55.4273 50.0695 55.4273C50.0695 57.0304 50.0695 58.5694 50.0695 60.1578C52.2627 60.1578 54.4527 60.1578 56.6708 60.1578C56.6708 61.1943 56.6708 62.1816 56.6708 63.1932C53.2458 63.1932 49.8454 63.1932 46.3693 63.1932C46.3693 61.4695 46.3693 59.7498 46.3693 57.969Z" fill="white"/>
<path d="M202.847 33.0729C202.847 29.5996 202.847 26.1874 202.847 22.7371C206.214 22.7371 209.547 22.7371 212.908 22.7371C212.908 23.7333 212.908 24.7216 212.908 25.7736C210.781 25.7736 208.675 25.7736 206.546 25.7736C206.546 27.2135 206.546 28.5897 206.546 30.0161C208.541 30.0161 210.529 30.0161 212.544 30.0161C212.544 31.0541 212.544 32.0424 212.544 33.0948C210.54 33.0948 208.556 33.0948 206.547 33.0948C206.547 34.6977 206.547 36.2367 206.547 37.8253C208.741 37.8253 210.931 37.8253 213.149 37.8253C213.149 38.862 213.149 39.8494 213.149 40.8604C209.723 40.8604 206.322 40.8604 202.847 40.8604C202.847 38.281 202.847 35.7074 202.847 33.0729Z" fill="white"/>
<path d="M163.879 36.0018C163.879 31.5526 163.879 27.1644 163.879 22.7376C167.245 22.7376 170.578 22.7376 173.939 22.7376C173.939 23.7321 173.939 24.7203 173.939 25.7726C171.814 25.7726 169.708 25.7726 167.578 25.7726C167.578 27.2127 167.578 28.589 167.578 30.0151C169.572 30.0151 171.56 30.0151 173.576 30.0151C173.576 31.0529 173.576 32.0411 173.576 33.0938C171.573 33.0938 169.588 33.0938 167.579 33.0938C167.579 34.6969 167.579 36.236 167.579 37.8243C169.772 37.8243 171.962 37.8243 174.18 37.8243C174.18 38.8608 174.18 39.8481 174.18 40.8598C170.755 40.8598 167.355 40.8598 163.879 40.8598C163.879 39.2583 163.879 37.6606 163.879 36.0018Z" fill="white"/>
<path d="M189.491 28.0404C189.639 27.3133 189.717 26.6189 189.933 25.9711C190.588 24.0078 191.927 22.7622 193.997 22.5717C195.162 22.4644 196.389 22.4755 197.524 22.7261C199.428 23.1464 200.46 24.5408 200.791 26.4439C200.929 27.2372 200.97 28.0478 201.059 28.8905C199.787 28.8905 198.589 28.8905 197.45 28.8905C197.306 28.0515 197.22 27.223 197.013 26.4264C196.796 25.5894 196.223 25.2053 195.37 25.1613C194.487 25.1156 193.844 25.4516 193.571 26.2874C193.316 27.0695 193.085 27.9007 193.072 28.7142C193.032 31.0437 193.09 33.3758 193.154 35.7056C193.168 36.2005 193.329 36.7057 193.498 37.1787C193.815 38.0676 194.336 38.415 195.222 38.4217C196.154 38.4288 196.742 38.0948 197.02 37.1983C197.257 36.4327 197.349 35.6188 197.475 34.8214C197.522 34.5248 197.482 34.2144 197.482 33.8676C198.715 33.8676 199.909 33.8676 201.141 33.8676C201.146 35.35 201.047 36.7994 200.495 38.1756C199.763 40.0012 198.341 40.9309 196.455 41.0794C195.463 41.1575 194.429 41.1205 193.454 40.9302C191.127 40.4763 190.033 38.7898 189.644 36.5919C189.146 33.7746 189.2 30.9335 189.491 28.0404Z" fill="white"/>
<path d="M152.133 27.597C152.059 27.2065 152.016 26.8621 151.917 26.5351C151.633 25.595 151.097 25.1867 150.164 25.1611C149.245 25.1359 148.602 25.5015 148.376 26.4645C148.101 27.6388 147.88 28.8573 147.875 30.0577C147.866 32.2018 147.932 34.3585 148.168 36.4873C148.345 38.0873 149.38 38.6946 150.743 38.3377C151.464 38.1489 151.83 37.6155 151.974 36.9693C152.197 35.9656 152.313 34.9377 152.483 33.8649C153.578 33.8649 154.772 33.8649 156.002 33.8649C156.003 35.2708 155.911 36.6383 155.439 37.9535C154.72 39.9565 153.23 40.9497 151.19 41.0925C150.254 41.158 149.284 41.1264 148.366 40.9496C146.043 40.5027 144.893 38.8491 144.515 36.6461C143.963 33.4222 143.958 30.1691 144.526 26.9477C145.045 24.0025 146.99 22.4537 149.955 22.4597C150.557 22.461 151.166 22.4751 151.76 22.5644C153.786 22.8692 155.079 24.0593 155.569 26.0463C155.793 26.9579 155.817 27.9196 155.937 28.8968C154.651 28.8968 153.47 28.8968 152.251 28.8968C152.214 28.483 152.177 28.0671 152.133 27.597Z" fill="white"/>
<path d="M51.9171 29.6557C51.9171 33.4154 51.9171 37.1141 51.9171 40.848C50.696 40.848 49.5007 40.848 48.262 40.848C48.262 35.8316 48.262 30.8374 48.262 25.7859C46.94 25.7859 45.6592 25.7859 44.3463 25.7859C44.3463 24.7429 44.3463 23.7571 44.3463 22.7352C48.1705 22.7352 51.9903 22.7352 55.8277 22.7352C55.8277 23.7372 55.8277 24.7243 55.8277 25.749C54.5416 25.749 53.277 25.749 51.9171 25.749C51.9171 27.0544 51.9171 28.3246 51.9171 29.6557Z" fill="white"/>
<path d="M102.159 39.6582C102.159 33.9911 102.159 28.3841 102.159 22.7379C103.386 22.7379 104.582 22.7379 105.825 22.7379C105.825 27.7553 105.825 32.7674 105.825 37.8299C107.979 37.8299 110.087 37.8299 112.219 37.8299C112.219 38.8678 112.219 39.8549 112.219 40.8632C108.871 40.8632 105.551 40.8632 102.159 40.8632C102.159 40.476 102.159 40.0971 102.159 39.6582Z" fill="white"/>
<path d="M24.6245 45.6646C24.6245 45.3875 24.6245 45.1685 24.6245 44.9298C25.5459 44.9298 26.4089 44.9298 27.3427 44.9298C28.2317 47.4429 29.1309 49.9851 30.0302 52.5272C30.0581 52.5237 30.086 52.5203 30.1139 52.5168C30.1139 50.0019 30.1139 47.487 30.1139 44.9411C30.8586 44.9411 31.5504 44.9411 32.268 44.9411C32.268 48.7806 32.268 52.5949 32.268 56.5032C31.4453 56.5032 30.6084 56.5242 29.7749 56.4804C29.6506 56.4738 29.4991 56.1777 29.4329 55.9895C28.6342 53.719 27.85 51.4434 27.0593 49.1701C27.0016 49.0042 26.9223 48.8459 26.7846 48.5242C26.7846 51.2753 26.7846 53.8559 26.7846 56.4709C26.0659 56.4709 25.3887 56.4709 24.6245 56.4709C24.6245 52.896 24.6245 49.3094 24.6245 45.6646Z" fill="white"/>
<path d="M158.903 22.6996C159.806 22.6996 160.65 22.6996 161.527 22.6996C161.527 28.755 161.527 34.7814 161.527 40.8456C160.345 40.8456 159.15 40.8456 157.933 40.8456C157.933 34.8053 157.933 28.7795 157.933 22.6996C158.249 22.6996 158.546 22.6996 158.903 22.6996Z" fill="white"/>
<path d="M83.7488 40.8833C83.3516 40.8833 83.0143 40.8833 82.6592 40.8833C82.6592 34.8025 82.6592 28.7768 82.6592 22.7253C83.8625 22.7253 85.0428 22.7253 86.2548 22.7253C86.2548 28.7589 86.2548 34.7852 86.2548 40.8833C85.4452 40.8833 84.6271 40.8833 83.7488 40.8833Z" fill="white"/>
<path d="M154.188 63.2166C153.952 63.2166 153.776 63.2166 153.577 63.2166C153.577 57.14 153.577 51.1142 153.577 45.0606C154.775 45.0606 155.955 45.0606 157.17 45.0606C157.17 51.0879 157.17 57.1144 157.17 63.2166C156.206 63.2166 155.227 63.2166 154.188 63.2166Z" fill="white"/>
<path d="M93.4266 61.9929C93.4266 62.4168 93.4266 62.7804 93.4266 63.1802C92.2084 63.1802 91.0138 63.1802 89.7991 63.1802C89.7991 57.1363 89.7991 51.1106 89.7991 45.0589C91.0021 45.0589 92.1824 45.0589 93.4266 45.0589C93.4266 50.6877 93.4266 56.3101 93.4266 61.9929Z" fill="white"/>
<path d="M40.7459 46.0555C41.0473 46.9071 41.4542 47.7063 41.5672 48.5456C41.8034 50.3004 41.783 52.076 41.3797 53.8165C40.9684 55.592 39.8054 56.4984 37.996 56.5048C36.7456 56.5093 35.4951 56.5049 34.2447 56.5028C34.2058 56.5028 34.1669 56.4849 34.0959 56.4675C34.0959 52.6398 34.0959 48.8048 34.0959 44.9363C35.6359 44.9363 37.1631 44.8946 38.6865 44.9533C39.4904 44.9844 40.1986 45.36 40.7459 46.0555ZM36.4082 51.928C36.4082 52.8733 36.4082 53.8185 36.4082 54.7749C36.8552 54.7749 37.2344 54.7843 37.6131 54.7729C38.3726 54.7501 38.9019 54.3477 39.0585 53.6244C39.4745 51.702 39.4756 49.7607 39.0708 47.8353C38.9237 47.1356 38.4155 46.7263 37.7023 46.6549C37.2898 46.6137 36.8699 46.6474 36.4082 46.6474C36.4082 48.4049 36.4082 50.1055 36.4082 51.928Z" fill="white"/>
<path d="M39.2739 13.3024C39.2739 15.352 39.2739 17.3407 39.2739 19.3673C38.4848 19.3673 37.7317 19.3673 36.9193 19.3673C36.9193 17.7052 36.9193 16.0313 36.9193 14.3296C36.0222 14.3296 35.1832 14.3296 34.2837 14.3296C34.2837 15.9889 34.2837 17.662 34.2837 19.37C33.4686 19.37 32.7125 19.37 31.9206 19.37C31.9206 15.5473 31.9206 11.7164 31.9206 7.84735C32.6748 7.84735 33.4279 7.84735 34.2286 7.84735C34.2286 9.30923 34.2286 10.782 34.2286 12.2895C35.1299 12.2895 35.9851 12.2895 36.8879 12.2895C36.8879 10.826 36.8879 9.35319 36.8879 7.84512C37.69 7.84512 38.4461 7.84512 39.2739 7.84512C39.2739 9.63767 39.2739 11.4395 39.2739 13.3024Z" fill="white"/>
<path d="M47.798 17.9208C47.1752 19.0442 46.1976 19.4668 45.0244 19.5232C44.6227 19.5426 44.2169 19.5459 43.8167 19.5115C42.2957 19.3809 41.2506 18.5498 40.9251 17.0196C40.4435 14.7558 40.4264 12.4572 40.9155 10.1936C41.2961 8.43246 42.4775 7.57212 44.2648 7.56861C44.6863 7.56778 45.1147 7.56173 45.5284 7.62946C46.9902 7.86875 47.8657 8.78877 48.1555 10.2061C48.6109 12.4335 48.5791 14.6798 48.1655 16.9148C48.1041 17.2465 47.9336 17.5578 47.798 17.9208ZM42.9621 13.7288C43.0415 14.7171 43.0605 15.7154 43.2193 16.6905C43.3501 17.4932 43.8347 17.8114 44.5733 17.7969C45.2555 17.7835 45.7179 17.4358 45.8586 16.6648C46.2331 14.6125 46.2369 12.5463 45.869 10.4933C45.7194 9.65855 45.2737 9.31067 44.576 9.29596C43.8154 9.27993 43.3492 9.59156 43.2116 10.4616C43.0478 11.4972 43.0384 12.5576 42.9621 13.7288Z" fill="white"/>
<path d="M57.2471 16.3518C56.936 17.12 56.7791 17.9696 56.2919 18.524C55.1701 19.8006 53.6171 19.6685 52.1306 19.3856C50.872 19.146 50.1367 18.2418 49.8815 17.0306C49.4086 14.7865 49.3832 12.5107 49.8568 10.2672C50.2463 8.42238 51.4066 7.55805 53.2643 7.57426C53.8418 7.5793 54.4431 7.60044 54.9906 7.76219C56.4271 8.18663 57.0261 9.33919 57.2283 10.7202C57.4997 12.5743 57.4813 14.4384 57.2471 16.3518ZM55.043 14.9101C54.9693 13.4136 54.9536 11.9108 54.7981 10.4229C54.7165 9.64234 54.2028 9.3062 53.5195 9.29596C52.7802 9.28489 52.3248 9.59153 52.1683 10.4135C51.7698 12.5055 51.7774 14.6141 52.1701 16.7066C52.3149 17.4781 52.776 17.7948 53.4843 17.7969C54.1771 17.799 54.6382 17.4541 54.8077 16.708C54.9327 16.1575 54.9678 15.5862 55.043 14.9101Z" fill="white"/>
<path d="M77.7571 13.4359C77.626 14.7384 77.5908 16.0054 77.338 17.2266C77.058 18.5796 76.0751 19.3168 74.7281 19.4823C74.1329 19.5554 73.5147 19.554 72.919 19.4836C71.4528 19.3102 70.5097 18.4454 70.2079 17.0101C69.7352 14.7622 69.7178 12.4821 70.1943 10.2354C70.5775 8.42827 71.7482 7.57182 73.5751 7.56761C73.9576 7.56673 74.3465 7.54972 74.7216 7.60914C76.3478 7.86668 77.3323 8.94804 77.564 10.7697C77.674 11.6339 77.6955 12.5096 77.7571 13.4359ZM74.9123 17.2469C74.9574 17.1567 75.0227 17.0712 75.0446 16.9756C75.5643 14.713 75.5713 12.4419 75.051 10.1852C74.8953 9.50967 74.4019 9.26022 73.7211 9.29618C73.0833 9.32987 72.649 9.63661 72.5098 10.3587C72.0994 12.487 72.0772 14.6365 72.5193 16.7569C72.7626 17.9239 73.9862 18.1765 74.9123 17.2469Z" fill="white"/>
<path d="M19.3442 17.2856C19.8679 16.1971 19.6117 15.3642 18.5896 14.8814C17.9193 14.5648 17.2033 14.3474 16.529 14.0384C14.6138 13.1607 13.9088 10.857 14.9741 9.01616C15.4848 8.13382 16.3152 7.71028 17.2617 7.62375C18.0315 7.55337 18.8435 7.57968 19.5945 7.75134C21.0565 8.08553 21.7476 9.23632 21.6544 10.9695C20.9407 10.9695 20.2241 10.9695 19.4716 10.9695C19.4438 10.8306 19.4067 10.6783 19.3835 10.5239C19.2619 9.71518 18.9721 9.36679 18.3574 9.2976C17.7108 9.22482 17.1438 9.52391 16.9674 10.0308C16.7406 10.6827 16.9365 11.511 17.4662 11.832C17.9449 12.122 18.4746 12.3264 18.9813 12.5695C19.5606 12.8475 20.1584 13.0928 20.7145 13.4119C21.9713 14.1331 22.1509 15.3297 22.0223 16.6326C21.9028 17.8436 21.3283 18.7325 20.1701 19.1768C18.9432 19.6474 17.6823 19.6679 16.4316 19.3387C15.1112 18.9911 14.4358 17.973 14.3817 16.3963C14.3742 16.1764 14.3807 15.956 14.3807 15.719C14.5226 15.7026 14.6201 15.6819 14.7177 15.6815C15.3606 15.6785 16.0036 15.6799 16.6739 15.6799C16.7954 16.4569 16.6327 17.3571 17.5904 17.6951C18.2305 17.921 18.8198 17.8174 19.3442 17.2856Z" fill="white"/>
<path d="M22.3653 50.7933C22.8612 52.7038 23.3456 54.5654 23.8407 56.468C23.0253 56.468 22.2338 56.468 21.3995 56.468C21.2315 55.7139 21.06 54.9441 20.8788 54.1307C19.8851 54.1307 18.8889 54.1307 17.8453 54.1307C17.6721 54.9017 17.4959 55.6863 17.3167 56.4843C16.5088 56.4843 15.7274 56.4843 14.8718 56.4843C15.8868 52.6157 16.8958 48.7699 17.9048 44.9241C18.8926 44.9241 19.8384 44.9241 20.8097 44.9241C21.3255 46.8685 21.8396 48.8065 22.3653 50.7933ZM18.5373 50.7323C18.449 51.1791 18.3606 51.6259 18.2686 52.0909C19.0268 52.0909 19.7277 52.0909 20.4674 52.0909C20.112 50.449 19.7628 48.8357 19.4135 47.2224C19.3739 47.2312 19.3344 47.24 19.2948 47.2487C19.0504 48.3766 18.806 49.5046 18.5373 50.7323Z" fill="white"/>
<path d="M25.2937 13.9102C25.3731 14.8778 25.402 15.7933 25.5471 16.6897C25.6722 17.4626 26.0729 17.7771 26.6977 17.7964C27.3849 17.8175 27.7507 17.5296 27.9698 16.7538C28.0575 16.4435 28.1076 16.1203 28.1492 15.7996C28.1875 15.504 28.1914 15.2039 28.2114 14.8904C28.9886 14.8904 29.7248 14.8904 30.6393 14.8904C30.4585 15.8435 30.3754 16.7726 30.0952 17.6367C29.7226 18.7858 28.7981 19.3637 27.6307 19.4951C27.0943 19.5554 26.5395 19.5532 26.0031 19.4912C24.5132 19.3192 23.5544 18.4567 23.2489 16.9948C22.7793 14.748 22.764 12.4702 23.241 10.2261C23.6238 8.42515 24.7966 7.57254 26.6242 7.56691C26.9664 7.56586 27.3124 7.54906 27.6502 7.59169C29.1022 7.77488 30.0179 8.63704 30.2916 10.0996C30.3871 10.6096 30.4024 11.1348 30.4578 11.6872C29.6387 11.6872 28.8832 11.6872 28.1281 11.6872C28.0704 11.2383 28.0393 10.7968 27.9526 10.3668C27.803 9.62548 27.435 9.30899 26.7753 9.29653C26.1645 9.28499 25.6904 9.58219 25.5909 10.2813C25.423 11.4608 25.3859 12.6593 25.2937 13.9102Z" fill="white"/>
<path d="M81.4468 10.9868C81.4468 11.491 81.4468 11.9355 81.4468 12.4406C82.7323 12.4406 83.9902 12.4406 85.2733 12.4406C85.2733 13.121 85.2733 13.7405 85.2733 14.407C84.008 14.407 82.7662 14.407 81.4638 14.407C81.4638 16.0861 81.4638 17.7201 81.4638 19.3791C80.6472 19.3791 79.8919 19.3791 79.1124 19.3791C79.1124 15.5208 79.1124 11.6856 79.1124 7.83002C81.2526 7.83002 83.3637 7.83002 85.5084 7.83002C85.5084 8.46712 85.5084 9.08636 85.5084 9.75446C84.1834 9.75446 82.8618 9.75446 81.4468 9.75446C81.4468 10.1756 81.4468 10.5513 81.4468 10.9868Z" fill="white"/>
<path d="M58.7517 13.6685C58.7517 11.6995 58.7517 9.79155 58.7517 7.84665C59.5425 7.84665 60.2958 7.84665 61.0962 7.84665C61.0962 11.0199 61.0962 14.2005 61.0962 17.4407C62.4791 17.4407 63.8169 17.4407 65.1823 17.4407C65.1823 18.1023 65.1823 18.7051 65.1823 19.3569C63.0731 19.3569 60.9491 19.3569 58.7517 19.3569C58.7517 17.4962 58.7517 15.6128 58.7517 13.6685Z" fill="white"/>
<path d="M18.5495 50.6824C18.806 49.5046 19.0504 48.3766 19.2948 47.2487C19.3343 47.24 19.3739 47.2312 19.4135 47.2224C19.7628 48.8357 20.112 50.449 20.4674 52.0909C19.7277 52.0909 19.0268 52.0909 18.2686 52.0909C18.3606 51.6259 18.449 51.1791 18.5495 50.6824Z" fill="#FDFDFD"/>
</svg>